HIERARCHY
ROOT SpineBase
{
  OFFSET 0.000000 0.000000 0.000000
  CHANNELS 6 Xposition Yposition Zposition Zrotation Xrotation Yrotation
  JOINT SpineMid
  {
    OFFSET -0.000000 30.694354 0.000000
    CHANNELS 3 Zrotation Xrotation Yrotation
    JOINT SpineShoulder
    {
      OFFSET -0.052282 22.793540 -0.713606
      CHANNELS 3 Zrotation Xrotation Yrotation
      JOINT Neck
      {
        OFFSET -0.040857 7.519156 -0.543387
        CHANNELS 3 Zrotation Xrotation Yrotation
        JOINT Head
        {
          OFFSET -5.241211 12.822040 3.060542
          CHANNELS 3 Zrotation Xrotation Yrotation
          End Site
          {
            OFFSET 0 0 0
          }
        }
      }
      JOINT ShoulderLeft
      {
        OFFSET -14.880101 -4.594369 9.619002
        CHANNELS 3 Zrotation Xrotation Yrotation
        JOINT ElbowLeft
        {
          OFFSET -2.321489 -26.963696 4.039207
          CHANNELS 3 Zrotation Xrotation Yrotation
          JOINT WristLeft
          {
            OFFSET 0.572887 -22.536911 -2.166867
            CHANNELS 3 Zrotation Xrotation Yrotation
            JOINT HandLeft
            {
              OFFSET 1.790758 -6.724225 0.254122
              CHANNELS 3 Zrotation Xrotation Yrotation
              JOINT HandTipLeft
              {
                OFFSET 0.992541 -5.495307 -1.032788
                CHANNELS 3 Zrotation Xrotation Yrotation
                End Site
                {
                  OFFSET 0 0 0
                }
              }
              JOINT ThumbLeft
              {
                OFFSET 0.968218 0.705472 -4.246398
                CHANNELS 3 Zrotation Xrotation Yrotation
                End Site
                {
                  OFFSET 0 0 0
                }
              }
            }
          }
        }
      }
      JOINT ShoulderRight
      {
        OFFSET 11.923277 -3.662518 -9.869960
        CHANNELS 3 Zrotation Xrotation Yrotation
        JOINT ElbowRight
        {
          OFFSET 7.737497 -27.182434 -4.112946
          CHANNELS 3 Zrotation Xrotation Yrotation
          JOINT WristRight
          {
            OFFSET 1.454599 -20.652487 -6.082072
            CHANNELS 3 Zrotation Xrotation Yrotation
            JOINT HandRight
            {
              OFFSET -0.785171 -4.443673 -0.654809
              CHANNELS 3 Zrotation Xrotation Yrotation
              JOINT HandTipRight
              {
                OFFSET -1.466258 -7.534832 -0.603061
                CHANNELS 3 Zrotation Xrotation Yrotation
                End Site
                {
                  OFFSET 0 0 0
                }
              }
              JOINT ThumbRight
              {
                OFFSET 1.649860 -1.625547 -1.203709
                CHANNELS 3 Zrotation Xrotation Yrotation
                End Site
                {
                  OFFSET 0 0 0
                }
              }
            }
          }
        }
      }
    }
  }
  JOINT HipLeft
  {
    OFFSET -4.849929 0.031058 -0.497100
    CHANNELS 3 Zrotation Xrotation Yrotation
    JOINT KneeLeft
    {
      OFFSET 1.227906 -39.275366 2.969870
      CHANNELS 3 Zrotation Xrotation Yrotation
      JOINT AnkleLeft
      {
        OFFSET 7.519777 -37.554478 9.366116
        CHANNELS 3 Zrotation Xrotation Yrotation
        JOINT FootLeft
        {
          OFFSET -3.943926 -7.217166 -4.632323
          CHANNELS 3 Zrotation Xrotation Yrotation
          End Site
          {
            OFFSET 0 0 0
          }
        }
      }
    }
  }
  JOINT HipRight
  {
    OFFSET 4.617478 1.526491 -6.962513
    CHANNELS 3 Zrotation Xrotation Yrotation
    JOINT KneeRight
    {
      OFFSET 7.566650 -40.397463 -5.649512
      CHANNELS 3 Zrotation Xrotation Yrotation
      JOINT AnkleRight
      {
        OFFSET 4.357376 -36.124237 5.679475
        CHANNELS 3 Zrotation Xrotation Yrotation
        JOINT FootRight
        {
          OFFSET -0.936943 -7.779498 -7.748205
          CHANNELS 3 Zrotation Xrotation Yrotation
          End Site
          {
            OFFSET 0 0 0
          }
        }
      }
    }
  }
}
MOTION
Frames: 5
Frame Time: 0.033333
-20.749485 85.304747 364.476434 -1.511715 -2.204052 38.913523 -0.094674 -0.046315 -38.996998 0.002487 -0.097046 -0.072518 5.019104 1.269557 -1.296698 0.000000 0.000000 0.000000 -2.336132 -5.941182 0.105488 3.062818 -3.132463 -0.597556 -0.356170 -39.616157 -14.491587 -26.638128 26.575217 28.704081 0.000000 0.000000 0.000000 0.000000 0.000000 0.000000 -4.278519 3.873074 1.735115 3.845539 -3.293054 -0.884473 -17.150419 -5.279246 2.949075 17.825017 3.683228 -4.327164 0.000000 0.000000 0.000000 0.000000 0.000000 0.000000 3.290116 -10.253570 -38.587768 16.876129 13.030562 2.635955 -30.419456 12.506122 -9.412099 0.000000 0.000000 0.000000 -13.074070 8.725720 -35.833029 11.650699 -4.288159 -4.047644 -16.632434 16.884945 23.436347 0.000000 0.000000 0.000000
-22.739860 85.179541 363.612273 -2.042604 -2.576727 38.105409 -0.133330 -0.034685 -38.224120 -0.199015 -0.090734 -0.107301 6.017262 0.389135 -1.824482 0.000000 0.000000 0.000000 -1.424057 -4.775637 0.147902 1.425890 -6.805959 -0.468828 -12.961506 -29.099193 -15.307425 -4.713074 27.953844 16.512462 0.000000 0.000000 0.000000 0.000000 0.000000 0.000000 -4.170201 3.781543 1.791542 4.803726 -2.732392 -0.919853 -17.824645 -7.648085 3.055682 18.551273 7.275176 -5.417428 0.000000 0.000000 0.000000 0.000000 0.000000 0.000000 -0.192782 -6.398690 -38.446547 24.286397 11.404777 2.965466 -30.166896 11.315078 -9.646151 0.000000 0.000000 0.000000 -10.387964 6.431926 -36.008484 9.386934 -5.373400 -3.626612 -20.264597 24.189568 26.054050 0.000000 0.000000 0.000000
-24.335039 85.239591 363.159709 -2.335810 -3.200055 38.059771 0.024518 -0.072897 -38.206109 -0.340017 -0.074810 -0.119902 6.671836 -0.045590 -2.319866 0.000000 0.000000 0.000000 -2.013921 -5.813221 0.121223 0.434832 -5.555482 -0.304551 -25.490424 -18.024271 -12.415441 17.898494 20.603459 5.121246 0.000000 0.000000 0.000000 0.000000 0.000000 0.000000 -4.002710 4.151420 1.824714 4.420244 -2.351463 -0.740868 -19.583502 -8.345666 3.017591 20.833929 8.637028 -6.229766 0.000000 0.000000 0.000000 0.000000 0.000000 0.000000 -3.787329 -1.379616 -38.724464 30.757158 8.836639 3.571036 -27.378477 6.787687 -8.849409 0.000000 0.000000 0.000000 -7.956993 5.241003 -36.565523 7.223537 -6.554929 -3.384384 -22.601045 25.966650 28.608089 0.000000 0.000000 0.000000
-26.769201 85.168800 362.706610 -3.289935 -3.739891 38.027490 0.181870 0.028362 -38.242376 0.018063 -0.224867 -0.147038 6.740671 -0.217821 -2.484508 0.000000 0.000000 0.000000 -2.523119 -7.043091 0.068972 -0.545082 -3.205714 0.034114 -37.392609 -1.111022 -1.902574 32.566850 2.665085 1.067632 0.000000 0.000000 0.000000 0.000000 0.000000 0.000000 -3.336327 4.610912 1.844405 2.978998 -1.626407 -0.287858 -18.246015 -7.251987 2.371334 18.909190 8.531319 -5.519566 0.000000 0.000000 0.000000 0.000000 0.000000 0.000000 -5.018581 2.397237 -38.701832 31.878047 5.882527 4.025194 -19.067738 0.442464 -8.107463 0.000000 0.000000 0.000000 -4.183887 2.258043 -37.651211 3.165090 -6.459705 -2.725512 -22.957946 24.968866 29.736749 0.000000 0.000000 0.000000
-29.019843 84.993076 362.518526 -3.981284 -4.447055 38.254792 0.252669 -0.059891 -38.541575 -0.080337 -0.132854 -0.174155 5.582873 0.538391 -1.971507 0.000000 0.000000 0.000000 -3.131036 -8.191703 -0.027213 -1.391103 -0.190005 0.578680 -46.103403 14.943880 12.577987 40.424692 -19.017369 0.532680 0.000000 0.000000 0.000000 0.000000 0.000000 0.000000 -2.201348 5.259697 1.813520 0.693765 -0.762868 0.379876 -16.209766 -5.215975 1.508693 16.537099 8.221641 -4.608058 0.000000 0.000000 0.000000 0.000000 0.000000 0.000000 -5.248135 6.293746 -38.745856 30.532580 2.807487 4.244014 -12.603246 -1.344424 -6.906330 0.000000 0.000000 0.000000 -1.585324 1.128336 -38.346290 2.098410 -6.670570 -2.216419 -20.719143 19.706971 27.313752 0.000000 0.000000 0.000000
